<svg width="28" height="28" viewBox="0 0 28 28" fill="none" xmlns="http://www.w3.org/2000/svg">
<g id="Icon/Outline/bell">
<path id="Mask" fill-rule="evenodd" clip-rule="evenodd" d="M6.22161 18.0513L7.55289 16.7177C7.97935 16.2913 8.21402 15.7249 8.21402 15.1225V9.84584C8.21402 8.31486 8.87966 6.85158 10.0417 5.83394C11.2128 4.80727 12.7043 4.35599 14.2578 4.56019C16.8831 4.90881 18.8631 7.28255 18.8631 10.0828V15.1225C18.8631 15.7249 19.0978 16.2913 19.5231 16.7166L20.8556 18.0513H6.22161ZM15.7944 20.6924C15.7944 21.7067 14.761 22.5641 13.538 22.5641C12.315 22.5641 11.2816 21.7067 11.2816 20.6924V20.3077H15.7944V20.6924ZM23.1515 17.1577L21.1196 15.1225V10.0828C21.1196 6.15548 18.2968 2.81937 14.5534 2.32409C12.385 2.03527 10.1963 2.69753 8.55473 4.13712C6.90304 5.58348 5.9576 7.66389 5.9576 9.84584L5.95648 15.1225L3.92458 17.1577C3.39545 17.688 3.23863 18.4766 3.52519 19.1682C3.81289 19.8609 4.48191 20.3077 5.23104 20.3077H9.02519V20.6924C9.02519 22.9691 11.0492 24.8205 13.538 24.8205C16.0268 24.8205 18.0508 22.9691 18.0508 20.6924V20.3077H21.845C22.5941 20.3077 23.262 19.8609 23.5486 19.1693C23.8363 18.4766 23.6806 17.6869 23.1515 17.1577Z" fill="black"/>
<mask id="mask0_2_473" style="mask-type:luminance" maskUnits="userSpaceOnUse" x="3" y="2" width="21" height="23">
<path id="Mask_2" fill-rule="evenodd" clip-rule="evenodd" d="M6.22161 18.0513L7.55289 16.7177C7.97935 16.2913 8.21402 15.7249 8.21402 15.1225V9.84584C8.21402 8.31486 8.87966 6.85158 10.0417 5.83394C11.2128 4.80727 12.7043 4.35599 14.2578 4.56019C16.8831 4.90881 18.8631 7.28255 18.8631 10.0828V15.1225C18.8631 15.7249 19.0978 16.2913 19.5231 16.7166L20.8556 18.0513H6.22161ZM15.7944 20.6924C15.7944 21.7067 14.761 22.5641 13.538 22.5641C12.315 22.5641 11.2816 21.7067 11.2816 20.6924V20.3077H15.7944V20.6924ZM23.1515 17.1577L21.1196 15.1225V10.0828C21.1196 6.15548 18.2968 2.81937 14.5534 2.32409C12.385 2.03527 10.1963 2.69753 8.55473 4.13712C6.90304 5.58348 5.9576 7.66389 5.9576 9.84584L5.95648 15.1225L3.92458 17.1577C3.39545 17.688 3.23863 18.4766 3.52519 19.1682C3.81289 19.8609 4.48191 20.3077 5.23104 20.3077H9.02519V20.6924C9.02519 22.9691 11.0492 24.8205 13.538 24.8205C16.0268 24.8205 18.0508 22.9691 18.0508 20.6924V20.3077H21.845C22.5941 20.3077 23.262 19.8609 23.5486 19.1693C23.8363 18.4766 23.6806 17.6869 23.1515 17.1577Z" fill="white"/>
</mask>
<g mask="url(#mask0_2_473)">
</g>
</g>
</svg>
