<svg width="21" height="21" viewBox="0 0 21 21" fill="none" xmlns="http://www.w3.org/2000/svg">
<g id="Icon/Outline/browser">
<path id="Mask" fill-rule="evenodd" clip-rule="evenodd" d="M6.125 6.125C6.125 5.64113 6.517 5.25 7 5.25C7.483 5.25 7.875 5.64113 7.875 6.125C7.875 6.60888 7.483 7 7 7C6.517 7 6.125 6.60888 6.125 6.125ZM9.625 6.125C9.625 5.64113 10.017 5.25 10.5 5.25C10.983 5.25 11.375 5.64113 11.375 6.125C11.375 6.60888 10.983 7 10.5 7C10.017 7 9.625 6.60888 9.625 6.125ZM4.375 7.875V5.25C4.375 4.767 4.76787 4.375 5.25 4.375H15.75C16.2321 4.375 16.625 4.767 16.625 5.25V7.875H4.375ZM16.625 15.75C16.625 16.233 16.2321 16.625 15.75 16.625H5.25C4.76787 16.625 4.375 16.233 4.375 15.75V9.625H16.625V15.75ZM15.75 2.625H5.25C3.80275 2.625 2.625 3.80275 2.625 5.25V7.875V9.625V15.75C2.625 17.1973 3.80275 18.375 5.25 18.375H15.75C17.1973 18.375 18.375 17.1973 18.375 15.75V9.625V7.875V5.25C18.375 3.80275 17.1973 2.625 15.75 2.625Z" fill="#231F20"/>
<mask id="mask0_4_35" style="mask-type:luminance" maskUnits="userSpaceOnUse" x="2" y="2" width="17" height="17">
<path id="Mask_2" fill-rule="evenodd" clip-rule="evenodd" d="M6.125 6.125C6.125 5.64113 6.517 5.25 7 5.25C7.483 5.25 7.875 5.64113 7.875 6.125C7.875 6.60888 7.483 7 7 7C6.517 7 6.125 6.60888 6.125 6.125ZM9.625 6.125C9.625 5.64113 10.017 5.25 10.5 5.25C10.983 5.25 11.375 5.64113 11.375 6.125C11.375 6.60888 10.983 7 10.5 7C10.017 7 9.625 6.60888 9.625 6.125ZM4.375 7.875V5.25C4.375 4.767 4.76787 4.375 5.25 4.375H15.75C16.2321 4.375 16.625 4.767 16.625 5.25V7.875H4.375ZM16.625 15.75C16.625 16.233 16.2321 16.625 15.75 16.625H5.25C4.76787 16.625 4.375 16.233 4.375 15.75V9.625H16.625V15.75ZM15.75 2.625H5.25C3.80275 2.625 2.625 3.80275 2.625 5.25V7.875V9.625V15.75C2.625 17.1973 3.80275 18.375 5.25 18.375H15.75C17.1973 18.375 18.375 17.1973 18.375 15.75V9.625V7.875V5.25C18.375 3.80275 17.1973 2.625 15.75 2.625Z" fill="white"/>
</mask>
<g mask="url(#mask0_4_35)">
</g>
</g>
</svg>
