<svg width="29" height="28" viewBox="0 0 29 28" fill="none" xmlns="http://www.w3.org/2000/svg">
<path fill-rule="evenodd" clip-rule="evenodd" d="M21.7692 20.3077H5.97434C5.3527 20.3077 4.84613 19.8023 4.84613 19.1795V8.17948L13.1948 14.441C13.3957 14.5922 13.6337 14.6667 13.8718 14.6667C14.1098 14.6667 14.3479 14.5922 14.5487 14.441L22.8974 8.17948V19.1795C22.8974 19.8023 22.3908 20.3077 21.7692 20.3077ZM21.0167 6.76923L13.8718 12.1282L6.72685 6.76923H21.0167ZM21.7692 4.51282H5.97434C4.10829 4.51282 2.58972 6.03138 2.58972 7.89743V19.1795C2.58972 21.0455 4.10829 22.5641 5.97434 22.5641H21.7692C23.6353 22.5641 25.1538 21.0455 25.1538 19.1795V7.89743C25.1538 6.03138 23.6353 4.51282 21.7692 4.51282Z" fill="black"/>
<mask id="mask0_2_461" style="mask-type:luminance" maskUnits="userSpaceOnUse" x="2" y="4" width="24" height="19">
<path fill-rule="evenodd" clip-rule="evenodd" d="M21.7692 20.3077H5.97434C5.3527 20.3077 4.84613 19.8023 4.84613 19.1795V8.17948L13.1948 14.441C13.3957 14.5922 13.6337 14.6667 13.8718 14.6667C14.1098 14.6667 14.3479 14.5922 14.5487 14.441L22.8974 8.17948V19.1795C22.8974 19.8023 22.3908 20.3077 21.7692 20.3077ZM21.0167 6.76923L13.8718 12.1282L6.72685 6.76923H21.0167ZM21.7692 4.51282H5.97434C4.10829 4.51282 2.58972 6.03138 2.58972 7.89743V19.1795C2.58972 21.0455 4.10829 22.5641 5.97434 22.5641H21.7692C23.6353 22.5641 25.1538 21.0455 25.1538 19.1795V7.89743C25.1538 6.03138 23.6353 4.51282 21.7692 4.51282Z" fill="white"/>
</mask>
<g mask="url(#mask0_2_461)">
</g>
</svg>
