<svg width="20" height="20" viewBox="0 0 20 20" fill="black" xmlns="http://www.w3.org/2000/svg">
<path fill-rule="evenodd" clip-rule="evenodd" d="M8.7969 11.2129L9.5109 9.4709L11.2029 8.7869L10.4889 10.5289L8.7969 11.2129ZM13.6829 6.3179C13.4089 6.0279 12.9789 5.9159 12.5839 6.0719L8.3709 7.7739C8.1209 7.8749 7.9219 8.0719 7.8199 8.3219L6.0749 12.5799C5.9269 12.9409 6.0139 13.3309 6.2529 13.6079C6.2609 13.6179 6.2669 13.6309 6.2759 13.6419C6.2919 13.6589 6.3109 13.6729 6.3289 13.6899C6.5169 13.8829 6.7719 13.9999 7.0419 13.9999C7.1669 13.9999 7.2939 13.9769 7.4159 13.9279L11.6289 12.2269C11.8789 12.1249 12.0779 11.9279 12.1799 11.6779L13.9249 7.4199C14.0869 7.0259 13.9749 6.5939 13.6829 6.3179ZM10 18C5.589 18 2 14.411 2 10C2 5.589 5.589 2 10 2C14.411 2 18 5.589 18 10C18 14.411 14.411 18 10 18ZM10 0C4.486 0 0 4.486 0 10C0 15.514 4.486 20 10 20C15.514 20 20 15.514 20 10C20 4.486 15.514 0 10 0Z" fill="black"/>
</svg>
