<svg width="21" height="21" viewBox="0 0 21 21" fill="none" xmlns="http://www.w3.org/2000/svg">
<g id="Icon/Outline/smartphone">
<path id="Mask" fill-rule="evenodd" clip-rule="evenodd" d="M8.3125 5.25H12.6875C13.1714 5.25 13.5625 5.64112 13.5625 6.125C13.5625 6.60888 13.1714 7 12.6875 7H8.3125C7.82862 7 7.4375 6.60888 7.4375 6.125C7.4375 5.64112 7.82862 5.25 8.3125 5.25ZM9.1875 14.4375C9.1875 13.713 9.7755 13.125 10.5 13.125C11.2245 13.125 11.8125 13.713 11.8125 14.4375C11.8125 15.162 11.2245 15.75 10.5 15.75C9.7755 15.75 9.1875 15.162 9.1875 14.4375ZM15.75 16.625C15.75 17.108 15.358 17.5 14.875 17.5H6.125C5.642 17.5 5.25 17.108 5.25 16.625V4.375C5.25 3.892 5.642 3.5 6.125 3.5H14.875C15.358 3.5 15.75 3.892 15.75 4.375V16.625ZM14.875 1.75H6.125C4.67775 1.75 3.5 2.92775 3.5 4.375V16.625C3.5 18.0723 4.67775 19.25 6.125 19.25H14.875C16.3223 19.25 17.5 18.0723 17.5 16.625V4.375C17.5 2.92775 16.3223 1.75 14.875 1.75Z" fill="#231F20"/>
<mask id="mask0_4_20" style="mask-type:luminance" maskUnits="userSpaceOnUse" x="3" y="1" width="15" height="19">
<path id="Mask_2" fill-rule="evenodd" clip-rule="evenodd" d="M8.3125 5.25H12.6875C13.1714 5.25 13.5625 5.64112 13.5625 6.125C13.5625 6.60888 13.1714 7 12.6875 7H8.3125C7.82862 7 7.4375 6.60888 7.4375 6.125C7.4375 5.64112 7.82862 5.25 8.3125 5.25ZM9.1875 14.4375C9.1875 13.713 9.7755 13.125 10.5 13.125C11.2245 13.125 11.8125 13.713 11.8125 14.4375C11.8125 15.162 11.2245 15.75 10.5 15.75C9.7755 15.75 9.1875 15.162 9.1875 14.4375ZM15.75 16.625C15.75 17.108 15.358 17.5 14.875 17.5H6.125C5.642 17.5 5.25 17.108 5.25 16.625V4.375C5.25 3.892 5.642 3.5 6.125 3.5H14.875C15.358 3.5 15.75 3.892 15.75 4.375V16.625ZM14.875 1.75H6.125C4.67775 1.75 3.5 2.92775 3.5 4.375V16.625C3.5 18.0723 4.67775 19.25 6.125 19.25H14.875C16.3223 19.25 17.5 18.0723 17.5 16.625V4.375C17.5 2.92775 16.3223 1.75 14.875 1.75Z" fill="white"/>
</mask>
<g mask="url(#mask0_4_20)">
</g>
</g>
</svg>
